<svg width="512" height="512" viewBox="0 0 512 512" fill="none" xmlns="http://www.w3.org/2000/svg">
<rect width="512" height="512" rx="80" fill="#258A65"/>
<path d="M183.221 403.578C182.434 402.768 179.636 399.562 177.005 396.454C174.374 393.345 171.519 390.007 170.659 389.036C169.799 388.065 168.069 386.078 166.814 384.62C165.558 383.163 163.546 380.832 162.341 379.439C159.478 376.13 150.281 365.411 149.224 364.151C148.771 363.611 146.746 361.279 144.724 358.97C137.196 350.373 131.105 343.358 127.991 339.7C126.227 337.627 123.634 334.602 122.227 332.975C120.82 331.349 116.384 326.219 112.369 321.575C108.354 316.931 103.814 311.691 102.28 309.931C100.746 308.171 99.2524 306.253 98.9599 305.671C98.6674 305.088 97.7659 302.014 96.9572 298.841C96.1481 295.668 94.9197 290.952 94.2283 288.362C90.7924 275.489 87.0009 260.226 87 259.26C86.9986 257.92 87.5548 256.805 88.4582 256.339C89.2311 255.939 91.0453 255.869 92.1183 256.197C92.5059 256.315 102.466 260.285 114.253 265.019L135.683 273.627L137.568 275.578C138.605 276.65 141.948 280.443 144.996 284.005C148.044 287.567 157.846 298.998 166.778 309.407C175.71 319.817 183.212 328.586 183.449 328.895C183.75 329.285 184.118 329.456 184.658 329.456C185.658 329.456 186.165 328.946 192.057 322.037C194.598 319.059 199.368 313.495 202.66 309.674C205.95 305.853 210.772 300.248 213.375 297.218C215.977 294.188 220.284 289.207 222.944 286.149C229.848 278.217 233.905 273.512 249.862 254.921C257.645 245.855 265.818 236.368 268.024 233.838C272.809 228.352 284.006 215.364 291.974 206.056C295.134 202.365 298.776 198.121 300.067 196.626C311.729 183.12 315.522 178.677 315.629 178.398C315.698 178.219 314.703 176.5 313.419 174.579C310.24 169.819 308.534 166.951 306.651 163.196C303.542 156.996 301.077 150.507 301.596 149.883C301.757 149.689 301.725 149.512 301.495 149.321C300.82 148.761 299.945 143.355 299.942 139.736C299.94 135.182 301.189 130.362 303.281 126.853C304.07 125.529 305.575 123.63 307.467 121.572C309.091 119.804 311.509 117.134 312.839 115.637C317.221 110.709 319.664 108.967 324.228 107.515C328.747 106.079 330.1 105.899 335.383 106.039C342.173 106.218 344.478 106.772 356.931 111.22C364.094 113.778 372.85 118.777 381.305 125.133C387.969 130.143 389.932 131.854 395.905 137.856C406.113 148.114 411.518 155.328 416.391 165.198C418.744 169.963 421.24 176.084 422.249 179.563C423.798 184.906 424.402 191.647 423.726 196.073C423.51 197.491 422.99 199.445 422.444 200.901C420.833 205.188 420.732 205.343 416.386 210.177C415.338 211.343 413.573 213.462 412.465 214.887C408.975 219.373 405.537 222.138 401.027 224.088C397.998 225.398 395.828 225.864 392.089 226.005C386.095 226.232 381.393 225.39 373.18 222.617C364.841 219.803 359.645 217.276 353.566 213.078C352.816 212.559 352.057 212.191 351.881 212.259C351.704 212.327 350.141 214.005 348.408 215.99C346.675 217.974 343.407 221.71 341.145 224.293C338.882 226.876 334.806 231.597 332.086 234.785C329.366 237.973 325.764 242.16 324.083 244.089C322.402 246.019 320.599 248.1 320.08 248.715C318.624 250.432 309.5 260.964 304.891 266.244C299.554 272.361 294.794 277.864 290.136 283.307C288.081 285.708 285.166 289.099 283.658 290.843C282.149 292.587 280.098 294.967 279.098 296.133C278.099 297.299 276.939 298.624 276.522 299.077C276.106 299.53 273.812 302.176 271.427 304.956C269.041 307.736 266.125 311.127 264.945 312.492C263.765 313.856 261.018 317.039 258.839 319.565C256.66 322.09 253.115 326.17 250.962 328.631C248.809 331.092 245.791 334.589 244.254 336.403C242.717 338.216 240.907 340.335 240.232 341.113C239.557 341.89 237.013 344.857 234.579 347.706C232.144 350.556 229.297 353.842 228.251 355.009C227.204 356.177 225.236 358.446 223.876 360.054C222.516 361.662 220.927 363.523 220.344 364.189C216.423 368.672 204.835 382.084 192.568 396.336C190.729 398.474 188.676 400.846 188.005 401.609C187.334 402.372 186.574 403.303 186.314 403.677C185.976 404.167 185.694 404.332 184.796 405.05C184.717 405.05 184.008 404.387 183.221 403.578ZM397.436 198.759C402.107 198.298 405.106 196.621 406.983 193.419C408.857 190.222 408.894 184.297 407.076 178.604C404.721 171.228 398.34 160.598 391.679 152.952C389.056 149.941 383.4 144.254 380.722 141.934C370.739 133.287 356.318 125.02 346.986 122.596C339.677 120.697 334.079 121.437 330.257 124.809C328.984 125.932 328.195 127.167 327.459 129.186C326.777 131.059 326.716 135.342 327.33 138.233C329.391 147.926 336.342 159.336 347.248 170.923C351.261 175.188 357.901 181.17 362.229 184.422C370.201 190.411 377.62 194.463 385.779 197.282C390.411 198.882 392.935 199.202 397.436 198.759Z" fill="white"/>
</svg>
